<?xml version="1.0" standalone="no"?>
<!DOCTYPE svg PUBLIC "-//W3C//DTD SVG 20010904//EN"
 "http://www.w3.org/TR/2001/REC-SVG-20010904/DTD/svg10.dtd">
<svg version="1.0" xmlns="http://www.w3.org/2000/svg"
 width="123.000000pt" height="132.000000pt" viewBox="0 0 123.000000 132.000000"
 preserveAspectRatio="xMidYMid meet">

<g transform="translate(0.000000,132.000000) scale(0.100000,-0.100000)"
fill="#000000" stroke="none">
<path d="M503 1042 c-179 -64 -275 -240 -229 -419 19 -77 50 -127 111 -181
171 -151 445 -94 550 115 27 51 30 68 30 148 0 78 -4 97 -28 147 -37 76 -104
143 -175 175 -76 35 -185 41 -259 15z m292 -144 c3 -13 4 -106 3 -208 l-3
-185 -180 0 -180 0 -3 199 c-2 153 1 201 10 208 7 4 88 8 180 8 166 0 168 0
173 -22z"/>
<path d="M477 874 c-10 -10 -9 -76 1 -92 7 -9 42 -12 143 -10 l134 3 0 50 0
50 -136 3 c-74 1 -138 -1 -142 -4z m89 -39 c18 -45 18 -66 -2 -40 -14 19 -16
19 -28 3 -14 -18 -28 -14 -21 5 28 80 30 81 51 32z m64 25 c0 -5 -4 -10 -10
-10 -5 0 -10 -16 -10 -36 0 -21 -4 -33 -10 -29 -5 3 -10 19 -10 36 0 16 -5 29
-11 29 -5 0 -7 5 -4 10 3 6 17 10 31 10 13 0 24 -4 24 -10z m40 -21 l6 -24 7
28 c4 16 13 27 20 24 14 -4 21 -52 11 -75 -6 -14 -8 -13 -14 8 -5 16 -8 19 -9
8 -1 -10 -7 -18 -15 -18 -8 0 -17 8 -19 18 -3 12 -5 9 -6 -7 -1 -15 -5 -21
-10 -15 -12 13 -1 86 12 81 6 -2 14 -14 17 -28z"/>
<path d="M525 710 c3 -5 8 -10 11 -10 2 0 4 5 4 10 0 6 -5 10 -11 10 -5 0 -7
-4 -4 -10z"/>
<path d="M570 710 c0 -5 5 -10 10 -10 6 0 10 5 10 10 0 6 -4 10 -10 10 -5 0
-10 -4 -10 -10z"/>
<path d="M525 660 c-3 -5 -1 -10 4 -10 6 0 11 5 11 10 0 6 -2 10 -4 10 -3 0
-8 -4 -11 -10z"/>
<path d="M570 660 c0 -5 5 -10 10 -10 6 0 10 5 10 10 0 6 -4 10 -10 10 -5 0
-10 -4 -10 -10z"/>
<path d="M670 622 c0 -43 6 -53 26 -45 9 3 14 20 14 44 0 32 -3 39 -20 39 -17
0 -20 -7 -20 -38z"/>
<path d="M480 610 c0 -5 5 -10 11 -10 5 0 7 5 4 10 -3 6 -8 10 -11 10 -2 0 -4
-4 -4 -10z"/>
<path d="M525 610 c-3 -5 -1 -10 4 -10 6 0 11 5 11 10 0 6 -2 10 -4 10 -3 0
-8 -4 -11 -10z"/>
<path d="M570 610 c0 -5 5 -10 10 -10 6 0 10 5 10 10 0 6 -4 10 -10 10 -5 0
-10 -4 -10 -10z"/>
<path d="M480 560 c0 -5 5 -10 11 -10 5 0 7 5 4 10 -3 6 -8 10 -11 10 -2 0 -4
-4 -4 -10z"/>
<path d="M525 560 c-3 -5 -1 -10 4 -10 6 0 11 5 11 10 0 6 -2 10 -4 10 -3 0
-8 -4 -11 -10z"/>
<path d="M570 560 c0 -5 5 -10 10 -10 6 0 10 5 10 10 0 6 -4 10 -10 10 -5 0
-10 -4 -10 -10z"/>
</g>
</svg>
